<svg xmlns="http://www.w3.org/2000/svg" xmlns:xlink="http://www.w3.org/1999/xlink" version="1.1" id="Capa_1" x="0px" y="0px" viewBox="0 0 477.265 477.265" style="enable-background:new 0 0 477.265 477.265;" xml:space="preserve">
<path fill="red" d="M362.034,196.143h-80.609v-8.119c0-6.315-5.117-11.438-11.432-11.438H254.55v-45.881c0-26.564,21.618-48.182,48.182-48.182  h94.358c8.802,0,15.926-7.131,15.926-15.926s-7.124-15.926-15.926-15.926h-94.358c-44.139,0-80.034,35.903-80.034,80.034v45.881  h-15.443c-6.315,0-11.432,5.123-11.432,11.438v8.119h-80.609C51.589,196.143,0,247.738,0,311.364  c0,63.642,51.589,115.23,115.214,115.23c44.403,0,82.88-25.149,102.119-61.939h42.599c19.238,36.79,57.716,61.939,102.103,61.939  c63.642,0,115.231-51.589,115.231-115.23C477.265,247.738,425.676,196.143,362.034,196.143z M170.799,323.092  c0,4.525-3.671,8.188-8.181,8.188h-27.496v27.49c0,4.518-3.671,8.181-8.181,8.181h-23.454c-4.51,0-8.18-3.663-8.18-8.181v-27.49  H67.809c-4.51,0-8.181-3.663-8.181-8.188v-23.438c0-4.526,3.671-8.189,8.181-8.189h27.498v-27.488c0-4.526,3.669-8.189,8.18-8.189  h23.454c4.51,0,8.181,3.663,8.181,8.189v27.488h27.496c4.51,0,8.181,3.663,8.181,8.189V323.092z M322.204,329.258  c-9.876,0-17.885-8.017-17.885-17.901c0-9.869,8.009-17.886,17.885-17.886c9.892,0,17.902,8.017,17.902,17.886  C340.106,321.241,332.095,329.258,322.204,329.258z M359.096,366.149c-9.877,0-17.886-8.009-17.886-17.894  c0-9.884,8.009-17.893,17.886-17.893c9.89,0,17.901,8.009,17.901,17.893C376.997,358.14,368.986,366.149,359.096,366.149z   M359.096,292.367c-9.877,0-17.886-8.011-17.886-17.894c0-9.884,8.009-17.893,17.886-17.893c9.89,0,17.901,8.009,17.901,17.893  C376.997,284.357,368.986,292.367,359.096,292.367z M395.987,329.258c-9.877,0-17.886-8.017-17.886-17.901  c0-9.869,8.009-17.886,17.886-17.886c9.892,0,17.901,8.017,17.901,17.886C413.888,321.241,405.879,329.258,395.987,329.258z"/>
<g>
</g>
<g>
</g>
<g>
</g>
<g>
</g>
<g>
</g>
<g>
</g>
<g>
</g>
<g>
</g>
<g>
</g>
<g>
</g>
<g>
</g>
<g>
</g>
<g>
</g>
<g>
</g>
<g>
</g>
</svg>
